# xmcd CD database file
#
# Track frame offsets:
#	150
#	19329
#	23245
#	45323
#	49070
#	62566
#	73275
#	74478
#	79664
#	98028
#	128115
#	129335
#	140544
#	146629
#	155037
#	157742
#	172783
#	185635
#	197874
#	214289
#	221303
#	249409
#
# Disc length: 3528 seconds
#
# Revision: 0
# Processed by: cddbd v1.5.2PL0 Copyright (c) Steve Scherf et al.
# Submitted via: CDex 1.51
#
DISCID=3f0dc616
DTITLE=John Altenburgh and Friends - A Wisconsin Christmas DIsc 3
DYEAR=2004
DGENRE=Jazz
TTITLE0=The Christmas Song
TTITLE1=The Long List
TTITLE2=Santa Claus
TTITLE3=Dialogue
TTITLE4=Please Come Home For Christsmas 1
TTITLE5=Please Come Home For Christmas
TTITLE6=More Dialogue
TTITLE7=Much More Dialogue
TTITLE8=Boogie Woogie Santa
TTITLE9=Humbug Ways
TTITLE10=Again More Dialoge
TTITLE11=On Christma
TTITLE12=Put In My Place
TTITLE13=On Christmas again...
TTITLE14=Silient Night
TTITLE15=Christmas Sounds
TTITLE16=Chipmunks Altenburgh style
TTITLE17=Frosty The Snowman Altenburg Style - Janets small dog
TTITLE18=Bike Give away
TTITLE19=Bike Give away 1
TTITLE20=Wisconsin Driving Song
TTITLE21=Wisconsin Driving Song 1
EXTD=YEAR: 2004
EXTT0=
EXTT1=
EXTT2=
EXTT3=
EXTT4=
EXTT5=
EXTT6=
EXTT7=
EXTT8=
EXTT9=
EXTT10=
EXTT11=
EXTT12=
EXTT13=
EXTT14=
EXTT15=
EXTT16=
EXTT17=
EXTT18=
EXTT19=
EXTT20=
EXTT21=
PLAYORDER=
